<svg width="1727" height="1117" viewBox="0 0 1727 1117" fill="none" xmlns="http://www.w3.org/2000/svg">
<line x1="1222.99" y1="758.5" x2="1318.99" y2="756.5" stroke="#252525"/>
<line x1="1252.5" y1="821" x2="1252.5" y2="758" stroke="#252525"/>
<line x1="1221.98" y1="789.5" x2="1252.98" y2="788.5" stroke="#252525"/>
<line x1="1065" y1="820.5" x2="1319" y2="819.5" stroke="#252525"/>
<line x1="1221.5" y1="658.997" x2="1222.5" y2="819.997" stroke="#252525"/>
<line x1="1318.5" y1="663" x2="1318.5" y2="1095" stroke="#252525"/>
<line x1="1063" y1="660.5" x2="1727" y2="660.5" stroke="#252525"/>
<line x1="1062.5" y1="2.99954" x2="1063.5" y2="1094" stroke="#252525"/>
<path d="M1 1078C72.3333 719.667 384.6 3 1063 3C1741.4 3 1725 651.5 1725 660.5C1725 871.5 1534 1078 1319 1078C1187 1078 1063.5 970 1063.5 820C1063.5 739.5 1124.2 660.5 1221 660.5C1317.8 660.5 1319 746 1319 757C1319 789 1294.1 820 1252.5 820C1229 820 1222 802 1222 789C1222 772.5 1235.5 758.5 1252.5 758.5" stroke="#606060"/>
</svg>
