<svg width="60" height="60" viewBox="0 0 60 60" fill="none" xmlns="http://www.w3.org/2000/svg">
<circle cx="30" cy="30" r="29" stroke="white" stroke-width="2"/>
<path d="M30.06 39.42C29.5895 39.4174 29.1254 39.2985 28.7015 39.0719C28.2775 38.8453 27.9043 38.5168 27.6088 38.1101L19.8499 27.6721C19.3965 27.0437 19.1112 26.2865 19.0265 25.4868C18.9418 24.6871 19.0611 23.8771 19.3707 23.149C19.6219 22.5162 20.0318 21.9771 20.5514 21.596C21.071 21.215 21.6784 21.008 22.3011 21H37.8189C38.4416 21.008 39.049 21.215 39.5686 21.596C40.0882 21.9771 40.4981 22.5162 40.7492 23.149C41.0589 23.8771 41.1782 24.6871 41.0935 25.4868C41.0088 26.2865 40.7235 27.0437 40.2701 27.6721L32.5112 38.1101C32.2157 38.5168 31.8425 38.8453 31.4185 39.0719C30.9946 39.2985 30.5305 39.4174 30.06 39.42Z" fill="#FCFCFC"/>
</svg>
