<svg width="180" height="180" viewBox="0 0 180 180" fill="none" xmlns="http://www.w3.org/2000/svg">
<circle cx="89.5" cy="90.5" r="32.5" fill="#7A746F"/>
<circle cx="90" cy="90" r="89.75" stroke="#7A746F" stroke-width="0.5"/>
<circle cx="90" cy="90" r="61" stroke="#7A746F" stroke-width="2"/>
<path fill-rule="evenodd" clip-rule="evenodd" d="M80.833 81C80.4705 81.0001 80.1161 81.1594 79.8146 81.4576C79.5132 81.7559 79.2783 82.1798 79.1395 82.6757C79.0008 83.1716 78.9645 83.7173 79.0352 84.2438C79.1059 84.7702 79.2805 85.2538 79.5368 85.6334L88.7038 99.2053C89.0476 99.7141 89.5138 100 90 100C90.4862 100 90.9524 99.7141 91.2962 99.2053L100.463 85.6334C100.72 85.2538 100.894 84.7702 100.965 84.2438C101.036 83.7173 100.999 83.1716 100.86 82.6757C100.722 82.1798 100.487 81.7559 100.185 81.4576C99.8839 81.1594 99.5295 81.0001 99.167 81H80.833Z" fill="#B6ACA5"/>
</svg>
