<svg width="24" height="24" viewBox="0 0 24 24" fill="none" xmlns="http://www.w3.org/2000/svg">
<path d="M16.5138 0.878736C15.8513 0.436236 15.0613 1.22624 15.5025 1.88874L16.29 3.06999C16.6095 3.54894 16.78 4.11177 16.78 4.68749C16.78 5.2632 16.6095 5.82603 16.29 6.30499L15.5025 7.48624C15.0613 8.14874 15.8525 8.93874 16.515 8.49624L17.695 7.70874C18.174 7.38928 18.7368 7.2188 19.3125 7.2188C19.8882 7.2188 20.4511 7.38928 20.93 7.70874L22.1113 8.49624C22.7738 8.93874 23.5638 8.14874 23.1213 7.48624L22.3338 6.30499C22.0143 5.82603 21.8438 5.2632 21.8438 4.68749C21.8438 4.11177 22.0143 3.54894 22.3338 3.06999L23.1213 1.88874C23.5638 1.22624 22.7738 0.436236 22.11 0.878736L20.93 1.66624C20.4511 1.9857 19.8882 2.15618 19.3125 2.15618C18.7368 2.15618 18.174 1.9857 17.695 1.66624L16.5138 0.878736Z" fill="#FCFCFC"/>
<path d="M23.1975 16.1563C23.4525 15.5488 22.7238 15.0313 22.1125 15.3013C20.8907 15.8376 19.5706 16.1134 18.2363 16.1113C13.005 16.1113 8.765 11.9563 8.765 6.83001C8.76308 5.09919 9.25481 3.40372 10.1825 1.94251C10.5375 1.38251 10.1112 0.607513 9.46125 0.772513C4.45 2.05126 0.75 6.51626 0.75 11.8275C0.75 18.1363 5.96875 23.25 12.4075 23.25C17.2825 23.25 21.4575 20.3188 23.1975 16.1563Z" fill="#E9E8E4"/>
</svg>
